<?xml version="1.0" encoding="UTF-8"?>
<!DOCTYPE svg PUBLIC "-//W3C//DTD SVG 1.1//EN" "http://www.w3.org/Graphics/SVG/1.1/DTD/svg11.dtd">
<svg version="1.1" xmlns="http://www.w3.org/2000/svg" xmlns:xlink="http://www.w3.org/1999/xlink" x="0" y="0" width="320" height="320" viewBox="0, 0, 800, 800">
  <g id="Lock">
    <g id="Kappa">
      <g>
        <path d="M400.95,87.272 C487.221,87.855 547.37,167.62 557.496,247.558 C566.069,249.639 562.189,248.571 569.17,250.65 C596.524,260.606 618.072,282.154 628.028,309.508 C635.95,334.562 635.95,357.836 635.95,404.384 L635.95,493.295 L687.45,439.867 L687.45,584.467 C677.742,605.393 666.463,626.811 649.396,642.746 C642.37,649.306 633.288,655.896 623.309,656.504 C612.474,679.335 592.33,695.645 569.17,704.806 C544.116,712.728 520.842,712.728 474.294,712.728 L327.606,712.728 C281.058,712.728 257.784,712.728 232.73,704.806 C209.364,696.116 189.727,679.032 178.65,656.624 C147.924,654.236 123.544,610.095 112.55,584.467 L112.55,439.867 L165.95,495.267 L165.95,404.384 C165.95,357.836 165.95,334.562 173.872,309.508 C183.828,282.154 205.376,260.606 232.73,250.65 C239.711,248.571 235.83,249.639 244.404,247.558 C253.879,167.02 315.164,88.581 400.95,87.272 z M400.95,139.867 C329.95,139.867 302.45,232.367 302.45,232.367 L498.95,232.367 C498.95,232.367 471.95,139.867 400.95,139.867 z" fill="#000000"/>
        <path d="M401.017,77.272 C444.927,77.569 484.606,97.064 515.2,130.956 C541.865,161.177 560.549,199.379 566.409,239.417 L566.442,239.426 C567.044,239.582 567.557,239.728 568.469,240.001 C568.294,239.948 570.837,240.712 572.023,241.065 C572.214,241.122 572.403,241.185 572.59,241.253 C602.722,252.22 626.458,275.956 637.425,306.088 C637.474,306.222 637.52,306.357 637.563,306.493 C638.164,308.394 638.723,310.288 639.243,312.184 C642.508,324.087 644.276,336.172 645.14,351.512 C645.829,363.731 645.95,374.251 645.95,404.384 L645.95,468.511 L680.25,432.927 C686.495,426.448 697.45,430.869 697.45,439.867 L697.45,584.467 C697.45,585.92 697.133,587.356 696.521,588.675 C683.354,617.058 672.115,635.215 656.22,650.055 C648.677,656.682 640.094,663.804 629.858,665.62 C617.269,688.49 596.596,704.142 572.848,714.105 C572.63,714.191 572.408,714.27 572.184,714.341 C570.284,714.942 568.39,715.501 566.494,716.021 C554.591,719.285 542.506,721.054 527.166,721.918 C514.947,722.607 504.427,722.728 474.294,722.728 L327.606,722.728 C295.351,722.728 284.306,722.578 271.439,721.715 C255.389,720.639 242.666,718.436 229.715,714.341 C229.557,714.291 229.4,714.237 229.245,714.179 C203.369,704.386 186.56,688.843 172.113,665.661 C154.457,662.063 141.19,648.966 130.308,635.401 C119.84,621.946 110.578,605.235 103.36,588.409 C102.826,587.163 102.55,585.822 102.55,584.467 L102.55,439.867 C102.55,430.869 113.505,426.448 119.75,432.927 L155.95,470.483 L155.95,404.383 C155.95,374.251 156.071,363.73 156.76,351.511 C157.624,336.171 159.393,324.087 162.657,312.184 C163.177,310.288 163.736,308.394 164.337,306.493 C164.38,306.357 164.426,306.222 164.475,306.088 C175.442,275.956 199.178,252.22 229.31,241.253 C229.497,241.185 229.686,241.122 229.876,241.066 C231.063,240.712 233.608,239.948 233.431,240.001 C234.094,239.8 234.761,239.61 235.432,239.432 C241.279,199.233 259.685,161.17 286.673,130.964 C317.278,97.424 357.051,77.941 400.797,77.273 L401.017,77.272 z M400.95,87.272 C315.164,88.581 253.879,167.02 244.404,247.558 C235.83,249.639 239.711,248.571 232.73,250.65 C205.376,260.606 183.828,282.154 173.872,309.508 C165.95,334.562 165.95,357.836 165.95,404.384 L165.95,495.267 L112.55,439.867 L112.55,584.467 C123.544,610.095 147.924,654.236 178.65,656.624 C189.727,679.032 209.364,696.116 232.73,704.806 C257.784,712.728 281.058,712.728 327.606,712.728 L474.294,712.728 C520.842,712.728 544.116,712.728 569.17,704.806 C592.33,695.645 612.474,679.335 623.309,656.504 C633.288,655.896 642.37,649.306 649.396,642.746 C666.463,626.811 677.742,605.393 687.45,584.467 L687.45,439.867 L635.95,493.295 L635.95,404.384 C635.95,357.836 635.95,334.562 628.028,309.508 C618.072,282.154 596.524,260.606 569.17,250.65 C562.189,248.571 566.069,249.639 557.496,247.558 C547.37,167.62 487.221,87.855 400.95,87.272 z M400.95,139.867 C471.95,139.867 498.95,232.367 498.95,232.367 L302.45,232.367 C302.45,232.367 329.95,139.867 400.95,139.867 z M400.95,149.867 C373.72,149.867 351.342,165.314 333.34,191.746 C326.848,201.278 321.428,211.551 317.059,221.827 L316.834,222.367 L484.641,222.367 L484.401,221.784 C480.089,211.512 474.727,201.243 468.289,191.715 C450.441,165.3 428.167,149.867 400.95,149.867 z" fill="#FFFFFF"/>
      </g>
      <g id="Face">
        <g id="Mouths">
          <path d="M346.911,575.344 C346.911,575.344 369.289,596.544 403.444,596.544 C437.6,596.544 454.089,575.344 454.089,575.344" fill-opacity="0" stroke="#FFFFFF" stroke-width="10" stroke-linecap="round" display="none"/>
          <path d="M338.5,597 C338.5,597 362.5,575.3 400.5,575.3 C434.5,575.3 458.5,597 458.5,597" fill-opacity="0" stroke="#FFFFFF" stroke-width="10" stroke-linecap="round"/>
          <g display="none">
            <path d="M453.287,569.167 C447.972,596.025 424.715,613.82 397.826,614.5 C371.137,614.393 347.713,595.323 342.365,569.167 L453.287,569.167 z" fill="#FFFFFF"/>
            <path d="M453.287,569.167 C447.972,596.025 424.715,613.82 397.826,614.5 C371.137,614.393 347.713,595.323 342.365,569.167 L453.287,569.167 z" fill-opacity="0" stroke="#FFFFFF" stroke-width="5" stroke-linecap="round" stroke-linejoin="round"/>
          </g>
        </g>
        <g id="Left_Eye">
          <path d="M294.088,440.623 C321.574,440.623 343.855,462.904 343.855,490.389 C343.855,517.874 321.574,540.155 294.088,540.155 C266.603,540.155 244.322,517.874 244.322,490.389 L244.635,484.643 C244.635,484.643 224.26,457.518 225.01,452.518 C237.542,461.984 244.745,464.612 252.557,463.058 C261.714,448.855 277.423,441.045 294.088,440.623 z" fill="#FFFFFF"/>
          <path d="M294.032,459.889 C297.187,460.015 300.446,460.138 303.416,461.393 C297.487,463.804 294.342,469.754 294.032,475.889 C294.032,484.726 301.196,491.889 310.032,491.889 C316.061,491.795 320.431,488.951 323.723,484.075 C324.583,488.29 324.32,486.185 324.532,490.389 C324.532,507.234 310.877,520.889 294.032,520.889 C277.187,520.889 263.532,507.234 263.532,490.389 C263.532,473.544 277.187,459.889 294.032,459.889 z" fill="#000000"/>
        </g>
        <g id="Right_Eye">
          <path d="M505.912,440.735 C478.426,440.735 456.145,463.016 456.145,490.501 C456.145,517.987 478.426,540.268 505.912,540.268 C533.397,540.268 555.678,517.987 555.678,490.501 L555.365,484.755 C555.365,484.755 575.74,457.63 574.99,452.63 C562.458,462.097 555.255,464.724 547.443,463.17 C538.286,448.967 522.577,441.157 505.912,440.735 z" fill="#FFFFFF"/>
          <path d="M504.812,459.889 C507.967,460.015 511.226,460.138 514.196,461.393 C508.266,463.804 505.122,469.754 504.812,475.889 C504.812,484.726 511.975,491.889 520.812,491.889 C526.841,491.795 531.21,488.951 534.503,484.075 C535.362,488.29 535.099,486.185 535.312,490.389 C535.312,507.234 521.656,520.889 504.812,520.889 C487.967,520.889 474.312,507.234 474.312,490.389 C474.312,473.544 487.967,459.889 504.812,459.889 z" fill="#000000"/>
        </g>
      </g>
    </g>
  </g>
  <g id="Lockette" display="none">
    <g>
      <path d="M400.5,655.536 C262.438,655.536 150.517,543.615 150.517,405.553 C150.517,267.491 262.438,155.569 400.5,155.569 C538.562,155.569 650.483,267.491 650.483,405.553 C650.483,543.615 538.562,655.536 400.5,655.536 z" fill="#000000"/>
      <path d="M400.5,655.536 C262.438,655.536 150.517,543.615 150.517,405.553 C150.517,267.491 262.438,155.569 400.5,155.569 C538.562,155.569 650.483,267.491 650.483,405.553 C650.483,543.615 538.562,655.536 400.5,655.536 z" fill-opacity="0" stroke="#FFFFFF" stroke-width="10"/>
    </g>
    <g id="Face">
      <g id="Mouths">
        <path d="M347.275,546.564 C347.275,546.564 369.501,567.62 403.424,567.62 C437.348,567.62 453.724,546.564 453.724,546.564" fill-opacity="0" stroke="#FFFFFF" stroke-width="10" stroke-linecap="round"/>
        <g display="none">
          <path d="M442.616,548.227 C438.58,568.623 420.919,582.136 400.5,582.653 C380.233,582.571 362.445,568.09 358.384,548.227 L442.616,548.227 z" fill="#FFFFFF"/>
          <path d="M442.616,548.227 C438.58,568.623 420.919,582.136 400.5,582.653 C380.233,582.571 362.445,568.09 358.384,548.227 L442.616,548.227 z" fill-opacity="0" stroke="#FFFFFF" stroke-width="5" stroke-linecap="round" stroke-linejoin="round"/>
        </g>
        <g display="none">
          <path d="M400.5,582.653 C390.093,582.653 381.656,574.216 381.656,563.808 C381.656,553.401 390.093,544.964 400.5,544.964 C410.907,544.964 419.344,553.401 419.344,563.808 C419.344,574.216 410.907,582.653 400.5,582.653 z" fill="#FFFFFF"/>
          <path d="M400.5,582.653 C390.093,582.653 381.656,574.216 381.656,563.808 C381.656,553.401 390.093,544.964 400.5,544.964 C410.907,544.964 419.344,553.401 419.344,563.808 C419.344,574.216 410.907,582.653 400.5,582.653 z" fill-opacity="0" stroke="#FFFFFF" stroke-width="10"/>
        </g>
      </g>
    </g>
    <g id="Left_Eye">
      <path d="M314.837,442.93 C336.938,442.93 354.854,460.846 354.854,482.947 C354.854,505.048 336.938,522.964 314.838,522.964 C292.737,522.964 274.821,505.048 274.821,482.947 L275.072,478.326 C275.072,478.326 258.689,456.515 259.292,452.495 C269.369,460.107 275.161,462.22 281.443,460.97 C288.806,449.55 301.437,443.269 314.837,442.93 z" fill="#FFFFFF"/>
      <path d="M314.792,458.422 C317.329,458.524 319.95,458.623 322.338,459.632 C317.57,461.57 315.041,466.354 314.792,471.288 C314.792,478.393 320.552,484.153 327.658,484.153 C332.506,484.077 336.019,481.791 338.666,477.87 C339.358,481.26 339.146,479.567 339.317,482.947 C339.317,496.492 328.337,507.472 314.792,507.472 C301.248,507.472 290.267,496.492 290.267,482.947 C290.267,469.402 301.248,458.422 314.792,458.422 z" fill="#000000"/>
    </g>
    <g id="Right_Eye">
      <path d="M485.163,443.021 C463.062,443.021 445.146,460.937 445.146,483.037 C445.146,505.138 463.062,523.054 485.162,523.054 C507.263,523.054 525.179,505.138 525.179,483.037 L524.927,478.417 C524.927,478.417 541.311,456.606 540.708,452.585 C530.631,460.197 524.839,462.31 518.557,461.061 C511.194,449.64 498.563,443.36 485.163,443.021 z" fill="#FFFFFF"/>
      <path d="M484.278,458.422 C486.815,458.524 489.435,458.623 491.824,459.632 C487.056,461.57 484.527,466.354 484.278,471.288 C484.278,478.393 490.038,484.153 497.144,484.153 C501.992,484.077 505.505,481.791 508.152,477.87 C508.844,481.26 508.632,479.567 508.803,482.947 C508.803,496.492 497.823,507.472 484.278,507.472 C470.733,507.472 459.753,496.492 459.753,482.947 C459.753,469.402 470.733,458.422 484.278,458.422 z" fill="#000000"/>
    </g>
    <g>
      <path d="M84,460.964 L84,292.964 L144.5,352.964 C144.5,352.964 193.833,145.464 399.833,145.464 C605.833,145.464 648.5,352.964 648.5,352.964 L717,292.964 L717,460.964 C717,460.964 689.833,532.964 648.5,532.964 C632.091,532.964 603.753,531.88 577.165,501.541 C536.781,455.459 526.521,396.719 472.5,369.964 C437.241,352.501 309.834,426.964 309.833,426.964 C243.531,468.37 170.423,532.964 144.5,532.964 C93.167,532.964 84,460.964 84,460.964 z" fill="#000000"/>
      <path d="M84,460.964 L84,292.964 L144.5,352.964 C144.5,352.964 193.833,145.464 399.833,145.464 C605.833,145.464 648.5,352.964 648.5,352.964 L717,292.964 L717,460.964 C717,460.964 689.833,532.964 648.5,532.964 C632.091,532.964 603.753,531.88 577.165,501.541 C536.781,455.459 526.521,396.719 472.5,369.964 C437.241,352.501 309.834,426.964 309.833,426.964 C243.531,468.37 170.423,532.964 144.5,532.964 C93.167,532.964 84,460.964 84,460.964 z" fill-opacity="0" stroke="#FFFFFF" stroke-width="10" stroke-linecap="round" stroke-linejoin="round"/>
    </g>
  </g>
</svg>
